<svg xmlns="http://www.w3.org/2000/svg" width="34.1" height="40.7" viewBox="0 0 34.1 40.7">
  <path id="Bookmark" d="M719.6,1017.3a1.284,1.284,0,0,1-1-.4L704,1004.1l-14.6,12.8a1.358,1.358,0,0,1-1.6.2,1.568,1.568,0,0,1-.9-1.4V978.1a1.538,1.538,0,0,1,1.5-1.5h31.1a1.538,1.538,0,0,1,1.5,1.5v37.6a1.508,1.508,0,0,1-.9,1.4A.764.764,0,0,1,719.6,1017.3Zm-15.5-16.7a1.284,1.284,0,0,1,1,.4l13.1,11.4V979.6H690v32.8l13.1-11.4A1.284,1.284,0,0,1,704.1,1000.6Z" transform="translate(-686.9 -976.6)" fill="#262627"/>
</svg>
