<svg xmlns="http://www.w3.org/2000/svg" width="41.939" height="42" viewBox="0 0 41.939 42">
  <path id="Comment" d="M132,977.3h0a18.61,18.61,0,0,1,5.2.7,18.352,18.352,0,0,1,13.1,13.4,19.035,19.035,0,0,1-1.4,13.3,3.708,3.708,0,0,0-.3,2.9l1.8,6.7-6.4-1.7a3.75,3.75,0,0,0-1.1-.1,4.552,4.552,0,0,0-2,.5,18.742,18.742,0,0,1-13.7,1.7c-5.8-1.4-12.1-7.6-13.6-13.3a19.429,19.429,0,0,1,3.3-16.7,19.139,19.139,0,0,1,15.1-7.4m0-2a21.021,21.021,0,0,0-20.2,26.6c1.7,6.5,8.6,13.2,15.1,14.8a23.728,23.728,0,0,0,5.2.6,20.488,20.488,0,0,0,9.9-2.5,2.016,2.016,0,0,1,1.1-.3.75.75,0,0,1,.5.1l8.8,2.4h.1a.545.545,0,0,0,.5-.7l-2.4-9.1a1.939,1.939,0,0,1,.2-1.5,21.522,21.522,0,0,0,1.5-14.7,20.63,20.63,0,0,0-14.5-14.9,24.479,24.479,0,0,0-5.8-.8Z" transform="translate(-111.08 -975.3)" fill="#262627"/>
</svg>
