<svg xmlns="http://www.w3.org/2000/svg" width="43.911" height="38" viewBox="0 0 43.911 38">
  <path id="Heart" d="M534.9,1272.2a9.462,9.462,0,0,1,5.1,1.5c5,3.1,6.8,10.1,3.8,15.6-2.1,3.9-10.8,11.2-18.2,16.8a.494.494,0,0,1-.3.1.367.367,0,0,1-.3-.1c-7.4-5.5-16.1-12.9-18.2-16.8-2.9-5.5-1.2-12.5,3.8-15.6a9.462,9.462,0,0,1,5.1-1.5,9.781,9.781,0,0,1,8,4.2l1.6,2.2,1.6-2.2a10.051,10.051,0,0,1,8-4.2m0-2a12.18,12.18,0,0,0-9.7,5,12.18,12.18,0,0,0-9.7-5,11.983,11.983,0,0,0-6.2,1.8c-5.9,3.7-7.9,11.9-4.5,18.3,2.8,5.2,14.6,14.3,18.8,17.4a2.975,2.975,0,0,0,1.5.5,2.694,2.694,0,0,0,1.5-.5c4.3-3.2,16-12.2,18.8-17.4,3.4-6.4,1.4-14.6-4.5-18.3a10.817,10.817,0,0,0-6-1.8Z" transform="translate(-503.144 -1270.2)" fill="#262627"/>
</svg>
