<svg xmlns="http://www.w3.org/2000/svg" width="42.9" height="42.2" viewBox="0 0 42.9 42.2">
  <path id="Settings_" data-name="Settings " d="M724,84.6v-.8l4-1.2-.6-3.4-4.1.2a18.113,18.113,0,0,0-3.8-6.6l2.3-3.5L719,67l-3.1,2.9a18.923,18.923,0,0,0-7.1-2.6l-.5-4.2h-3.5l-.5,4.2a16.041,16.041,0,0,0-7.1,2.6L694,67l-2.7,2.3,2.3,3.5a18.113,18.113,0,0,0-3.8,6.6l-4.1-.2-.6,3.4,4,1.2v.8a18.583,18.583,0,0,0,1.3,6.7l-3.3,2.5,1.7,3,3.8-1.6a18.279,18.279,0,0,0,5.8,4.9l-.9,4,3.3,1.2,1.9-3.7a15.814,15.814,0,0,0,3.8.4,23.278,23.278,0,0,0,3.8-.4l1.9,3.7,3.3-1.2-.9-4a17.255,17.255,0,0,0,5.8-4.9l3.8,1.6,1.8-3-3.3-2.5A18.17,18.17,0,0,0,724,84.6ZM706.5,98.1A13.5,13.5,0,1,1,720,84.6,13.444,13.444,0,0,1,706.5,98.1Z" transform="translate(-685.1 -63.1)" fill="#262627"/>
</svg>
