<svg xmlns="http://www.w3.org/2000/svg" width="44.1" height="42" viewBox="0 0 44.1 42">
  <g id="Group_25" data-name="Group 25" transform="translate(-603.5 -489.1)">
    <path id="Path_48" data-name="Path 48" d="M625.6,491.1a1.606,1.606,0,0,1,1.1.5h0l3.1,2.8a6.131,6.131,0,0,0,4.3,1.7h9.3a2.2,2.2,0,0,1,2.2,2.1V527a2.135,2.135,0,0,1-2.2,2.1H607.7a2.2,2.2,0,0,1-2.2-2.1V498.2a2.135,2.135,0,0,1,2.2-2.1H617a6.31,6.31,0,0,0,4.3-1.7l3.1-2.8h0a2.078,2.078,0,0,1,1.2-.5m0-2a3.471,3.471,0,0,0-2.5,1l-3.2,2.8a4,4,0,0,1-2.9,1.2h-9.3a4.14,4.14,0,0,0-4.2,4.1V527a4.14,4.14,0,0,0,4.2,4.1h35.7a4.14,4.14,0,0,0,4.2-4.1V498.2a4.14,4.14,0,0,0-4.2-4.1h-9.3a4.005,4.005,0,0,1-2.9-1.2l-3.2-2.8a3.1,3.1,0,0,0-2.4-1Z" fill="#999"/>
    <path id="Path_49" data-name="Path 49" d="M625.6,503.1a5,5,0,1,0,5,5A4.951,4.951,0,0,0,625.6,503.1Zm0,8a3,3,0,1,1,3-3A2.946,2.946,0,0,1,625.6,511.1Z" fill="#999" fill-rule="evenodd"/>
    <path id="Path_50" data-name="Path 50" d="M631.3,515.1H619.8a3.227,3.227,0,0,0-3.3,3.1v2.9h2v-3a.945.945,0,0,1,1-1h12a.945.945,0,0,1,1,1v3h2v-2.9A3.077,3.077,0,0,0,631.3,515.1Z" fill="#999" fill-rule="evenodd"/>
  </g>
</svg>
